<svg width="24" height="24" viewBox="0 0 24 24" fill="none" xmlns="http://www.w3.org/2000/svg">
<path d="M13.133 4.42636C13.4009 4.15336 13.7642 4 14.143 4C14.5219 4 14.8852 4.15336 15.1531 4.42636L21.5817 10.9793C21.8495 11.2523 22 11.6227 22 12.0088C22 12.3949 21.8495 12.7652 21.5817 13.0383L15.1531 19.5912C14.8836 19.8565 14.5228 20.0033 14.1482 19.9999C13.7736 19.9966 13.4153 19.8435 13.1504 19.5735C12.8856 19.3035 12.7353 18.9383 12.7321 18.5565C12.7288 18.1746 12.8728 17.8068 13.133 17.5322L17.0002 13.465H3.42859C3.04971 13.465 2.68634 13.3116 2.41843 13.0385C2.15051 12.7654 2 12.395 2 12.0088C2 11.6226 2.15051 11.2522 2.41843 10.9791C2.68634 10.706 3.04971 10.5526 3.42859 10.5526H17.0002L13.133 6.48542C12.8652 6.21235 12.7148 5.84202 12.7148 5.45589C12.7148 5.06976 12.8652 4.69943 13.133 4.42636Z" fill="black"/>
</svg>
