<svg width="40" height="40" viewBox="0 0 40 40" fill="none" xmlns="http://www.w3.org/2000/svg">
<rect width="40" height="40" fill="white"/>
<path fill-rule="evenodd" clip-rule="evenodd" d="M27.9126 2.23141L24.7318 11.5379C25.3551 11.7764 25.9579 12.0952 26.5254 12.4962L26.5481 12.4765L31.9615 4.21721L27.9126 2.23141ZM28.0298 13.8642L28.0683 13.8054L33.5063 9.09078L35.2987 11.7829L28.8375 14.9864C28.6029 14.5941 28.3335 14.2184 28.0298 13.8642ZM29.6466 16.8176C30.3919 19.2814 29.9703 22.0572 28.2688 24.2411C28.2564 24.2571 28.2434 24.2727 28.2301 24.2878C26.9029 25.9717 22.4309 30.374 17.9205 34.0495C15.643 35.9055 13.3052 37.6181 11.3131 38.7155C10.322 39.2615 9.36371 39.685 8.5091 39.8801C7.68715 40.0677 6.7252 40.0951 5.97501 39.5082C5.2243 38.9222 5.01846 37.9812 5.00124 37.138C4.98334 36.2613 5.16124 35.2282 5.44976 34.133C6.02962 31.9318 7.12105 29.2453 8.3658 26.5821C10.8491 21.269 14.0553 15.8144 15.3451 14.1589C17.1746 11.8108 20.0281 10.7298 22.7825 11.0573L26.2314 0.966551L26.2329 0.961966C26.5119 0.133954 27.4401 -0.218725 28.1915 0.140645L28.2004 0.144907L33.4473 2.71833C34.1917 3.09056 34.4721 4.04212 33.9949 4.76326L32.0868 7.67449L32.6949 7.14724L32.7058 7.1379C33.3467 6.59821 34.3135 6.72975 34.7892 7.40934L34.8024 7.42861L37.332 11.2281C37.8131 11.9497 37.5331 12.9043 36.7872 13.2772L36.7842 13.2787L29.6466 16.8176ZM6.40002 3C6.95231 3 7.40002 3.44772 7.40002 4V7.40003H10.8C11.3523 7.40003 11.8 7.84774 11.8 8.40003C11.8 8.95231 11.3523 9.40003 10.8 9.40003H7.40002V12.8C7.40002 13.3523 6.95231 13.8 6.40002 13.8C5.84774 13.8 5.40002 13.3523 5.40002 12.8V9.40003H2C1.44772 9.40003 1 8.95231 1 8.40003C1 7.84774 1.44772 7.40003 2 7.40003H5.40002V4C5.40002 3.44772 5.84774 3 6.40002 3ZM25.6138 14.3098C22.9181 12.2054 19.0262 12.6884 16.9228 15.3881C16.6385 15.7531 16.2337 16.3503 15.7483 17.1221C15.7817 17.1715 15.8111 17.2246 15.8358 17.2811C15.8358 17.2811 15.8378 17.2849 15.8392 17.2876C15.8484 17.305 15.8709 17.3454 15.9114 17.4062C15.9923 17.5277 16.1467 17.7327 16.4134 17.9994C16.9467 18.5327 17.9359 19.319 19.6965 20.1731C20.1934 20.4141 20.4008 21.0123 20.1598 21.5093C19.9187 22.0062 19.3205 22.2136 18.8236 21.9725C16.8942 21.0366 15.7134 20.1279 14.9992 19.4137C14.8512 19.2657 14.7235 19.1263 14.6136 18.9971C13.9556 20.1204 13.2299 21.4162 12.4946 22.7997C12.7244 22.8955 12.9186 23.0765 13.0258 23.3211C13.0258 23.3211 13.0277 23.3248 13.0292 23.3276C13.0383 23.3449 13.0608 23.3854 13.1014 23.4462C13.1823 23.5676 13.3366 23.7727 13.6033 24.0394C14.1366 24.5727 15.1258 25.359 16.8864 26.2131C17.3833 26.4541 17.5908 27.0523 17.3497 27.5492C17.1087 28.0461 16.5104 28.2536 16.0135 28.0125C14.0842 27.0766 12.9034 26.1679 12.1891 25.4536C11.8904 25.1549 11.6745 24.8914 11.5204 24.6759C11.0617 25.5807 10.6094 26.5053 10.1777 27.429C8.95032 30.0549 7.91807 32.6143 7.38377 34.6425C7.11521 35.6619 6.98841 36.4893 7.00082 37.0972C7.01392 37.7386 7.17342 37.9065 7.2057 37.9317L7.20723 37.9329C7.23982 37.9584 7.44052 38.0726 8.06403 37.9303C8.65544 37.7953 9.42579 37.4718 10.3481 36.9637C12.183 35.9529 14.4115 34.329 16.6571 32.4991C21.1596 28.83 25.5287 24.5011 26.6813 23.0218C26.6928 23.007 26.7047 22.9926 26.7169 22.9786C28.7902 20.2805 28.2999 16.4066 25.6138 14.3098ZM34.25 29C34.8023 29 35.25 29.4477 35.25 30V33.26H38.5C39.0523 33.26 39.5 33.7077 39.5 34.26C39.5 34.8123 39.0523 35.26 38.5 35.26H35.25V38.51C35.25 39.0623 34.8023 39.51 34.25 39.51C33.6977 39.51 33.25 39.0623 33.25 38.51V35.26H30C29.4477 35.26 29 34.8123 29 34.26C29 33.7077 29.4477 33.26 30 33.26H33.25V30C33.25 29.4477 33.6977 29 34.25 29Z" fill="black"/>
</svg>
