<svg width="53" height="40" viewBox="0 0 53 40" fill="none" xmlns="http://www.w3.org/2000/svg">
<rect width="52.7273" height="40" fill="white"/>
<path d="M49.0559 21.7245C48.9771 21.2931 48.8107 20.8969 48.5655 20.5535L45.5621 16.2483L43.9596 13.9505C43.3992 13.1493 42.4886 12.6739 41.5166 12.6739H32.6726V8.80009C32.6726 6.95124 31.1753 5.45454 29.3452 5.45454H6.96379C5.1337 5.45454 3.63635 6.96004 3.63635 8.80009V26.9101C3.63635 28.7589 5.1337 30.2556 6.96379 30.2556H8.30352C8.71507 32.1837 10.4313 33.6364 12.4628 33.6364C14.4943 33.6364 16.2106 32.1837 16.6221 30.2556H35.5185C35.9563 32.1573 37.6375 33.5483 39.6515 33.5483C41.6655 33.5483 43.3642 32.1397 43.7933 30.2556H46.105C47.7512 30.2556 49.0909 28.9086 49.0909 27.2534V22.2791C49.0909 22.0942 49.0734 21.9093 49.0384 21.7245H49.0559ZM46.7442 21.0113H40.7635C40.641 21.0113 40.5359 20.9057 40.5359 20.7824V17.8595C40.5359 17.7362 40.641 17.6306 40.7635 17.6306H44.3887L46.7442 21.0113ZM5.38764 18.2997H8.2072V21.3899H5.38764V18.2997ZM5.38764 26.9101V23.1507H8.52243C9.31927 23.1507 9.95848 22.4992 9.95848 21.7069V17.9827C9.95848 17.1816 9.31051 16.5389 8.52243 16.5389H5.38764V8.80009C5.38764 7.92849 6.0969 7.21536 6.96379 7.21536H29.3364C30.2033 7.21536 30.9126 7.92849 30.9126 8.80009V28.4948H16.6396C16.6396 28.4948 16.6396 28.4948 16.6396 28.486C16.5871 28.2307 16.5083 27.9753 16.412 27.7376C16.3769 27.6584 16.3332 27.5792 16.2981 27.5087C16.2193 27.3503 16.1405 27.2006 16.0529 27.0509C16.0004 26.9629 15.9391 26.8836 15.8778 26.8044C15.7815 26.6812 15.6852 26.5579 15.5801 26.4346C15.5101 26.3554 15.4312 26.285 15.3524 26.2145C15.2386 26.1089 15.116 26.012 14.9934 25.9152C14.9059 25.8536 14.827 25.7919 14.7395 25.7391C14.6081 25.6511 14.468 25.5806 14.3192 25.5102C14.2316 25.4662 14.144 25.4222 14.0477 25.3781C13.8814 25.3165 13.715 25.2637 13.5399 25.2197C13.4523 25.1933 13.3735 25.1669 13.2859 25.1492C13.0232 25.0964 12.7518 25.07 12.4803 25.07C12.2089 25.07 11.9374 25.1052 11.6747 25.1492C11.5872 25.1669 11.5084 25.1933 11.4208 25.2197C11.2457 25.2637 11.0793 25.3165 10.9129 25.3781C10.8166 25.4134 10.729 25.4662 10.6415 25.5102C10.5014 25.5806 10.3613 25.6511 10.2212 25.7391C10.1336 25.7919 10.046 25.8536 9.96724 25.9152C9.84465 26.012 9.72206 26.1089 9.60823 26.2145C9.52942 26.285 9.45937 26.3554 9.38056 26.4346C9.27548 26.5491 9.17916 26.6723 9.08284 26.7956C9.02155 26.8748 8.96025 26.9541 8.90771 27.0421C8.81139 27.183 8.73259 27.3415 8.66253 27.4999C8.62751 27.5792 8.58373 27.6496 8.5487 27.7376C8.45238 27.9753 8.37357 28.2219 8.32103 28.486C8.32103 28.486 8.32103 28.486 8.32103 28.4948H6.99006C6.12317 28.4948 5.4139 27.7817 5.4139 26.9101H5.38764ZM12.4716 31.8844C11.0968 31.8844 9.976 30.7574 9.96724 29.384C9.96724 29.3664 9.96724 29.3488 9.96724 29.3312C9.98475 27.9577 11.1056 26.8396 12.4716 26.8396C13.8376 26.8396 14.9672 27.9577 14.9847 29.3312C14.9847 29.3488 14.9847 29.3664 14.9847 29.3752C14.9847 30.7574 13.8551 31.8844 12.4803 31.8844H12.4716ZM39.669 31.7875C38.3118 31.7875 37.2172 30.7134 37.1734 29.3312C37.1734 29.3136 37.1734 29.296 37.1734 29.2783C37.1734 29.2783 37.1734 29.2783 37.1734 29.2695V29.2607C37.1734 27.8697 38.303 26.734 39.6778 26.734C41.0525 26.734 42.1908 27.8697 42.1908 29.1903C42.1908 29.2079 42.1908 29.2343 42.1908 29.2607C42.1908 29.2784 42.1908 29.3048 42.1908 29.3136C42.1908 29.3136 42.1908 29.3136 42.1908 29.3224C42.1471 30.687 41.0525 31.7611 39.6953 31.7611L39.669 31.7875ZM47.3571 27.2534C47.3571 27.9401 46.8055 28.4948 46.1225 28.4948H43.8546C43.8546 28.4948 43.8458 28.4596 43.8458 28.4508C43.8283 28.3627 43.7933 28.2835 43.7758 28.1955C43.732 28.0194 43.6882 27.8521 43.6181 27.6848C43.5831 27.588 43.5306 27.4999 43.4868 27.4031C43.4167 27.2622 43.3467 27.1214 43.2591 26.9893C43.1978 26.9013 43.1365 26.8132 43.0752 26.7252C42.9877 26.6019 42.8914 26.4875 42.7863 26.373C42.7162 26.2938 42.6374 26.2145 42.5586 26.1441C42.4448 26.0385 42.3309 25.9416 42.2084 25.8536C42.1208 25.7919 42.0332 25.7215 41.9457 25.6687C41.8143 25.5806 41.6742 25.5102 41.5254 25.4398C41.429 25.3958 41.3415 25.3429 41.2452 25.3077C41.0788 25.2461 40.9124 25.1933 40.7373 25.1492C40.6497 25.1228 40.5709 25.0964 40.4833 25.0788C40.2207 25.026 39.9492 24.9996 39.669 24.9996C39.3888 24.9996 39.1173 25.0348 38.8547 25.0788C38.7671 25.0964 38.6795 25.1228 38.6007 25.1492C38.4256 25.1933 38.2592 25.2373 38.0928 25.3077C37.9965 25.3429 37.909 25.3958 37.8126 25.4398C37.6725 25.5102 37.5324 25.5806 37.4011 25.6687C37.3135 25.7303 37.226 25.7919 37.1384 25.8536C37.0158 25.9416 36.902 26.0385 36.7881 26.1441C36.7093 26.2145 36.6305 26.2938 36.5605 26.373C36.4554 26.4875 36.3591 26.6019 36.2715 26.7252C36.2102 26.8132 36.1402 26.9013 36.0876 26.9893C36.0001 27.1214 35.93 27.2622 35.86 27.4119C35.8162 27.5087 35.7636 27.5968 35.7286 27.6936C35.6673 27.8609 35.6148 28.0282 35.571 28.2043C35.5447 28.2923 35.5185 28.3715 35.5009 28.4596C35.5009 28.4772 35.4922 28.4948 35.4922 28.5036H32.6814V14.4347H41.5254C41.9282 14.4347 42.3047 14.6284 42.5411 14.9629L43.1716 15.8698H40.7723C39.6778 15.8698 38.7934 16.759 38.7934 17.8595V20.7824C38.7934 21.8829 39.6778 22.7721 40.7723 22.7721H47.3659V27.2622L47.3571 27.2534Z" fill="black"/>
</svg>
