<svg width="24" height="24" viewBox="0 0 24 24" fill="none" xmlns="http://www.w3.org/2000/svg">
<path d="M15.5 10C15.8978 10 16.2794 9.84196 16.5607 9.56066C16.842 9.27936 17 8.89782 17 8.5C17 8.10218 16.842 7.72064 16.5607 7.43934C16.2794 7.15804 15.8978 7 15.5 7C15.1022 7 14.7206 7.15804 14.4393 7.43934C14.158 7.72064 14 8.10218 14 8.5C14 8.89782 14.158 9.27936 14.4393 9.56066C14.7206 9.84196 15.1022 10 15.5 10Z" fill="black"/>
<path d="M3 5C3 4.46957 3.21071 3.96086 3.58579 3.58579C3.96086 3.21071 4.46957 3 5 3H19C19.5304 3 20.0391 3.21071 20.4142 3.58579C20.7893 3.96086 21 4.46957 21 5V19C21 19.5304 20.7893 20.0391 20.4142 20.4142C20.0391 20.7893 19.5304 21 19 21H5C4.46957 21 3.96086 20.7893 3.58579 20.4142C3.21071 20.0391 3 19.5304 3 19V5ZM19 5H5V12.92L8.375 10.22C8.55236 10.078 8.77279 10.0006 9 10.0006C9.22721 10.0006 9.44764 10.078 9.625 10.22L13.925 13.66L15.293 12.293C15.4805 12.1055 15.7348 12.0002 16 12.0002C16.2652 12.0002 16.5195 12.1055 16.707 12.293L19 14.586V5ZM5 19H19V17.414L16 14.414L14.707 15.707C14.533 15.8811 14.3009 15.9849 14.0551 15.9986C13.8094 16.0122 13.5672 15.9348 13.375 15.781L9 12.28L5 15.48V19Z" fill="black"/>
</svg>
