<svg width="24" height="24" viewBox="0 0 24 24" fill="none" xmlns="http://www.w3.org/2000/svg">
<path stroke="#B08A37" fill-rule="evenodd" clip-rule="evenodd" d="M15.5425 5.52473C14.1884 4.33042 12.4301 3.69703 10.6254 3.75347C8.82075 3.80992 7.1054 4.552 5.82857 5.8286C4.55197 7.10543 3.80992 8.82075 3.75347 10.6254C3.69703 12.4301 4.33042 14.1884 5.52473 15.5425C6.71904 16.8966 8.38449 17.7447 10.1821 17.9142C11.9062 18.0767 13.6276 17.6032 15.0239 16.5873L18.3373 19.9007C18.4722 20.0441 18.643 20.1489 18.8319 20.2043C19.0223 20.26 19.2242 20.2636 19.4165 20.2145C19.609 20.1657 19.7848 20.066 19.9254 19.9257C20.0661 19.7854 20.1663 19.6097 20.2156 19.4171C20.2648 19.2246 20.2612 19.0223 20.2051 18.8317C20.1495 18.6426 20.0443 18.4719 19.9005 18.3372L16.5873 15.0239C17.6032 13.6276 18.0767 11.9062 17.9142 10.1821C17.7447 8.38449 16.8966 6.71904 15.5425 5.52473ZM9.48835 6.07872C9.92955 5.95079 10.3875 5.88548 10.8487 5.88548C11.2077 5.88548 11.5646 5.92504 11.9133 6.00288C12.1937 6.06549 12.4686 6.15286 12.7349 6.26433C13.3324 6.51439 13.8741 6.88076 14.3286 7.3421C14.7831 7.80345 15.1414 8.35057 15.3825 8.95164C15.6236 9.55271 15.7428 10.1957 15.7332 10.8433C15.7141 12.1261 15.191 13.3499 14.2771 14.2503C13.3632 15.1507 12.1317 15.6555 10.8487 15.6555C9.56577 15.6555 8.3343 15.1507 7.42037 14.2503C6.50644 13.3499 5.98341 12.1261 5.96429 10.8433C5.95463 10.1957 6.07384 9.55271 6.31497 8.95164C6.55611 8.35057 6.91435 7.80345 7.36887 7.3421C7.82339 6.88076 8.36511 6.51439 8.96252 6.26433C9.13447 6.19235 9.31004 6.13042 9.48835 6.07872Z" fill="black"/>
</svg>
