<svg width="40" height="46" viewBox="0 0 40 46" fill="none" xmlns="http://www.w3.org/2000/svg">
<g clip-path="url(#clip0_237_6206)">
<path d="M5.0404 19.4542L6.25253 19.7064L7.32323 20.3116L8.42424 20.8967L9.40404 21.6633L10.3535 22.5107L10.3939 24.1146L11.2323 25.1838L11.5354 26.4851L11.9697 27.7662L12.3434 28.7245L13.3434 28.6842L13.8889 27.4535L14.7778 26.5255L15.9495 26.0715L17.2424 26.0917L18.4343 25.8092L19.6566 25.6882L20.8283 26.1926L22.1212 25.9L23.3636 26.1018L24.3131 27.0197L25.0606 27.9478L26.0606 28.8859L25.4747 30.1569L24.8586 31.085L24.3434 32.0231L24.0101 33.4757L22.7778 33.9094L21.4849 34.091L20.7273 35.3519L19.3535 35.0392L18.1717 35.2813L16.9495 35.594L15.6768 35.6949L14.5354 35.0594L13.2626 34.9989L12.0808 34.5954L10.9596 33.6169L10.0505 34.7467L9.77778 35.9975L9.0303 37.0366L9.09091 38.3883L8.15152 39.3869L8.46465 40.7487L7.53535 41.818L7.84849 43.1193L8.15152 44.3398L6.50505 45.4999V45.1872L4.84849 44.3096L5.87879 43.1193L6.04041 41.9189L5.53535 40.547L5.64647 39.276L6.53535 38.2269V36.9054L7.50505 35.937L7.45454 34.5349L8.38384 33.5866L9.25253 32.4569L7.88889 31.9727L6.47475 31.9928L5.28283 31.3977L4.29293 30.4999L3.26263 29.6727L2.32323 28.7346L1.96969 27.5039L1.75757 26.3035L0.575758 25.4461L0.919193 24.1146L0.949495 22.9242L0 21.7037L1.30303 20.937L1.63636 19.7467L2.64647 18.97L3.88889 19.6357L5.0404 19.4542Z" fill="#79A93F"/>
<path d="M18.8889 7.01648L20.2424 6.69368L21.6162 6.56254L22.9697 6.72394L24.4444 6.30027L25.5152 7.44015L26.9394 7.62172L28.202 8.25723L29 9.45763L28.7879 8.17653L29.0101 6.92569L29.7576 5.84634L30.5455 4.87794L31.0101 3.74815L31.7576 2.55783L33.1818 2.16443L34.1212 1.07498L35.3838 0.5L36.6869 0.792535L37.8687 0.81271L38.9495 1.44822L40 2.46705L39.2424 3.82885L39.1111 5.16039L39.3131 6.64324L38.1919 7.65198L37.6566 8.89274L36.697 9.87122L35.8182 11.0212L34.303 11.1422L33.1212 11.8383L32.2121 12.6453L32.8485 13.4422L32.9899 14.804L33.5051 15.9539L34.1919 17.0535L34.1515 18.385L34.4747 19.5955L34.899 20.7858L34.9798 22.0467L35.4242 23.2673L34.1212 24.4375L34.1111 24.0945L32.9192 23.2875L33.0202 22.0165L32.2626 20.8766L32.4242 19.5652L31.505 18.5363L31.8889 17.0736L31.1919 15.9943L30.9293 14.7031L29.7374 14.2693L28.7374 14.4206L27.6061 15.1469L26.2828 15.3083L24.9394 15.1167L23.6465 15.389L22.4545 14.7737L21.1616 14.4408L19.798 14.0978L18.7778 13.1496L17.3737 12.6352L17.3535 11.0716L16.9495 9.98218L16.7071 8.6002L17.6465 7.55111L18.8889 7.01648Z" fill="#79A93F"/>
</g>
<defs>
<clipPath id="clip0_237_6206">
<rect width="40" height="45" fill="white" transform="matrix(-1 0 0 1 40 0.5)"/>
</clipPath>
</defs>
</svg>
