<svg width="24" height="24" viewBox="0 0 24 24" fill="none" xmlns="http://www.w3.org/2000/svg">
<path d="M20.4306 10.8946L16.8363 13.9961L17.9314 18.6344C17.9918 18.8862 17.9762 19.1502 17.8867 19.3932C17.7971 19.6361 17.6375 19.8471 17.4281 19.9994C17.2187 20.1517 16.9689 20.2385 16.7101 20.2489C16.4514 20.2593 16.1954 20.1928 15.9745 20.0577L11.9408 17.5753L7.90481 20.0577C7.6839 20.192 7.4282 20.2579 7.16992 20.2471C6.91163 20.2364 6.66231 20.1494 6.45334 19.9972C6.24437 19.8451 6.0851 19.6344 5.99559 19.3919C5.90607 19.1494 5.89031 18.8858 5.95029 18.6344L7.04936 13.9961L3.45503 10.8946C3.25958 10.7257 3.11822 10.5029 3.04862 10.2541C2.97902 10.0053 2.98425 9.74157 3.06366 9.49574C3.14308 9.24991 3.29315 9.03293 3.49515 8.87189C3.69715 8.71085 3.94212 8.61288 4.19946 8.59023L8.91202 8.21003L10.7299 3.81058C10.8283 3.57081 10.9958 3.36572 11.2111 3.22138C11.4263 3.07704 11.6797 2.99997 11.9388 2.99997C12.198 2.99997 12.4513 3.07704 12.6666 3.22138C12.8819 3.36572 13.0493 3.57081 13.1477 3.81058L14.9649 8.21003L19.6774 8.59023C19.9353 8.61204 20.181 8.70946 20.3837 8.87028C20.5864 9.0311 20.7372 9.24817 20.8171 9.49429C20.897 9.74042 20.9025 10.0047 20.8329 10.2539C20.7633 10.5031 20.6217 10.7263 20.4258 10.8954L20.4306 10.8946Z" fill="black"/>
</svg>
