<svg width="18" height="18" viewBox="0 0 18 18" fill="none" xmlns="http://www.w3.org/2000/svg">
<path d="M17.4306 8.39463L13.8363 11.4961L14.9314 16.1344C14.9918 16.3862 14.9762 16.6502 14.8867 16.8932C14.7971 17.1362 14.6375 17.3471 14.4281 17.4994C14.2187 17.6517 13.9689 17.7386 13.7101 17.7489C13.4514 17.7593 13.1954 17.6928 12.9745 17.5578L8.94084 15.0753L4.90481 17.5578C4.6839 17.692 4.4282 17.7579 4.16992 17.7472C3.91163 17.7364 3.66231 17.6494 3.45334 17.4973C3.24437 17.3451 3.0851 17.1345 2.99559 16.892C2.90607 16.6494 2.89031 16.3859 2.95029 16.1344L4.04936 11.4961L0.455032 8.39463C0.259579 8.2257 0.118223 8.00294 0.0486194 7.75416C-0.0209847 7.50537 -0.0157528 7.2416 0.0636617 6.99577C0.143076 6.74994 0.293154 6.53296 0.495152 6.37192C0.69715 6.21088 0.942115 6.11291 1.19946 6.09027L5.91202 5.71006L7.72995 1.31061C7.82835 1.07084 7.99583 0.86575 8.21109 0.72141C8.42635 0.577069 8.67967 0.5 8.93884 0.5C9.19801 0.5 9.45133 0.577069 9.66659 0.72141C9.88186 0.86575 10.0493 1.07084 10.1477 1.31061L11.9649 5.71006L16.6774 6.09027C16.9353 6.11207 17.181 6.20949 17.3837 6.37031C17.5864 6.53113 17.7372 6.7482 17.8171 6.99432C17.897 7.24045 17.9025 7.50468 17.8329 7.75392C17.7633 8.00315 17.6217 8.22631 17.4258 8.39543L17.4306 8.39463Z" fill="#DBBE5D"/>
</svg>
