<svg width="24" height="24" viewBox="0 0 24 24" fill="none" xmlns="http://www.w3.org/2000/svg">
<path d="M3.00009 19H21.0001C21.1823 18.9994 21.361 18.9492 21.5168 18.8546C21.6726 18.7601 21.7996 18.6248 21.8843 18.4635C21.9689 18.3021 22.008 18.1207 21.9972 17.9387C21.9864 17.7568 21.9262 17.5813 21.8231 17.431L12.8231 4.43101C12.4501 3.89201 11.5521 3.89201 11.1781 4.43101L2.17809 17.431C2.07391 17.581 2.01282 17.7566 2.00145 17.9388C1.99008 18.121 2.02887 18.3029 2.1136 18.4646C2.19833 18.6263 2.32576 18.7618 2.48205 18.8562C2.63834 18.9505 2.81751 19.0003 3.00009 19Z" fill="black"/>
</svg>
