<svg width="25" height="24" viewBox="0 0 25 24" fill="none" xmlns="http://www.w3.org/2000/svg">
<path d="M17.5 17C16.9696 17 16.4609 17.2107 16.0858 17.5858C15.7107 17.9609 15.5 18.4696 15.5 19C15.5 19.5304 15.7107 20.0391 16.0858 20.4142C16.4609 20.7893 16.9696 21 17.5 21C18.0304 21 18.5391 20.7893 18.9142 20.4142C19.2893 20.0391 19.5 19.5304 19.5 19C19.5 18.4696 19.2893 17.9609 18.9142 17.5858C18.5391 17.2107 18.0304 17 17.5 17ZM17.5 17H9.794C9.333 17 9.102 17 8.912 16.918C8.74455 16.8459 8.60001 16.7293 8.494 16.581C8.374 16.414 8.327 16.191 8.233 15.751L5.77 4.265C5.674 3.814 5.625 3.588 5.505 3.42C5.39886 3.27115 5.25394 3.15425 5.086 3.082C4.897 3 4.667 3 4.207 3H3.5M6.5 6H19.373C20.095 6 20.455 6 20.698 6.15C20.9102 6.28187 21.0654 6.48843 21.133 6.729C21.21 7.003 21.111 7.35 20.911 8.043L19.526 12.843C19.406 13.258 19.346 13.465 19.226 13.619C19.1186 13.7551 18.9776 13.8608 18.817 13.926C18.637 14 18.421 14 17.992 14H8.23M8.5 21C7.96957 21 7.46086 20.7893 7.08579 20.4142C6.71071 20.0391 6.5 19.5304 6.5 19C6.5 18.4696 6.71071 17.9609 7.08579 17.5858C7.46086 17.2107 7.96957 17 8.5 17C9.03043 17 9.53914 17.2107 9.91421 17.5858C10.2893 17.9609 10.5 18.4696 10.5 19C10.5 19.5304 10.2893 20.0391 9.91421 20.4142C9.53914 20.7893 9.03043 21 8.5 21Z" stroke="#EBF1DD" stroke-width="2" stroke-linecap="round" stroke-linejoin="round"/>
</svg>
