<svg width="40" height="40" viewBox="0 0 40 40" fill="none" xmlns="http://www.w3.org/2000/svg">
<rect width="40" height="40" fill="white"/>
<path d="M19.9085 35.4979C19.7885 35.4979 19.6685 35.4778 19.5485 35.4279C10.4885 31.9678 0.498475 24.3579 2.18848 14.3179C2.85848 10.3179 5.21848 7.12785 8.49848 5.78785C14.0285 3.52785 18.2485 6.68785 19.9185 8.28785C21.5885 6.68785 25.7985 3.52785 31.3385 5.78785C34.6185 7.12785 36.9685 10.3179 37.6485 14.3179C39.3285 24.3379 29.3785 31.9379 20.3185 35.4079C20.2485 35.4379 20.1685 35.4678 20.0785 35.4778C20.0285 35.4778 19.9685 35.4879 19.9185 35.4879L19.9085 35.4979ZM12.3485 7.00785C11.3885 7.00785 10.3485 7.18785 9.24848 7.63785C6.61848 8.70785 4.71848 11.3379 4.15848 14.6479C2.59848 23.9379 13.1585 30.7479 19.9085 33.4179C26.6585 30.7379 37.2185 23.9379 35.6585 14.6479C35.0985 11.3279 33.1985 8.70785 30.5685 7.63785C24.8585 5.30785 20.8585 10.1679 20.6885 10.3679C20.3085 10.8379 19.5085 10.8379 19.1285 10.3679C18.9885 10.1979 16.3585 6.99785 12.3485 6.99785V7.00785Z" fill="black"/>
</svg>
