<svg width="40" height="40" viewBox="0 0 40 40" fill="none" xmlns="http://www.w3.org/2000/svg">
<rect width="40" height="40" fill="white"/>
<path fill-rule="evenodd" clip-rule="evenodd" d="M18.8868 1.38296C19.4314 0.872346 20.27 0.872346 20.8147 1.38296L20.8275 1.39522C21.7227 2.26479 25.6847 5.61871 35.6697 7.41684C36.3111 7.52416 36.7307 8.08838 36.7307 8.6825L36.7306 8.69771C36.7101 10.046 36.5005 16.7198 34.3834 23.4513C32.2814 30.135 28.172 37.2446 20.1209 38.8042C19.9968 38.8283 19.8693 38.8286 19.7451 38.8051C11.6885 37.2831 7.54692 30.1943 5.41443 23.5206C3.27635 16.8294 3.02874 10.1853 3.00126 8.78992C2.96753 8.07301 3.50546 7.60521 4.0212 7.4947C4.03068 7.49267 4.04018 7.49077 4.04971 7.48902C14.0322 5.65169 17.9838 2.27676 18.867 1.40199C18.8735 1.39555 18.8801 1.38921 18.8868 1.38296ZM19.8539 3.21439C18.2509 4.62573 13.9743 7.59786 5.01848 9.34111C5.09899 11.4426 5.4871 17.1772 7.31953 22.9119C9.37568 29.3467 13.1241 35.4205 19.9284 36.803C26.7278 35.3887 30.4487 29.2959 32.4755 22.8512C34.2817 17.1082 34.6437 11.3731 34.7154 9.27404C25.7449 7.56497 21.4617 4.61035 19.8539 3.21439Z" fill="black"/>
<path fill-rule="evenodd" clip-rule="evenodd" d="M19.8858 13.6728L18.2582 16.9837C18.1131 17.2788 17.8323 17.4837 17.507 17.5318L13.8438 18.0733L16.4981 20.6558C16.7339 20.8852 16.8418 21.216 16.7866 21.5404L16.1651 25.1893L19.4438 23.4582C19.7345 23.3047 20.082 23.3039 20.3734 23.456L23.6538 25.1678L23.0157 21.5146C22.959 21.19 23.0658 20.8584 23.3012 20.6279L25.9463 18.0386L22.2787 17.5124C21.9534 17.4657 21.6719 17.2622 21.5255 16.968L19.8858 13.6728ZM21.327 12.0796C21.3109 12.0272 21.2903 11.9756 21.2652 11.9253C20.6967 10.7882 19.0848 10.7882 18.5163 11.9253L16.695 15.63L12.6176 16.2328C11.3608 16.412 10.8626 17.9656 11.7741 18.8499C11.7744 18.8502 11.7747 18.8505 11.775 18.8507L14.7267 21.7227L14.0349 25.7846L14.0332 25.7954C13.8358 27.0358 15.1388 28.0004 16.2705 27.3953L19.9135 25.4719L23.5681 27.379L23.5744 27.3823C24.6826 27.9506 26.0135 27.0209 25.7854 25.7479L25.0764 21.6889L28.0203 18.8071L28.0279 18.7996C28.8972 17.9302 28.4503 16.3715 27.1602 16.1923L23.0822 15.6072L21.327 12.0796Z" fill="black"/>
</svg>
