<svg width="60" height="28" viewBox="0 0 60 28" fill="none" xmlns="http://www.w3.org/2000/svg">
<g clip-path="url(#clip0_237_6141)">
<path d="M46.936 15.7007C46.936 15.812 46.9006 15.9277 46.8696 16.039C46.8387 16.1503 46.7237 16.2082 46.6662 16.3151C46.6131 16.4086 46.5998 16.5243 46.5247 16.6178C46.4583 16.7024 46.3124 16.7069 46.2284 16.7914C46.1532 16.8671 46.1266 16.9962 46.0382 17.0719C45.9542 17.1387 45.8746 17.2144 45.7773 17.2812C45.6888 17.3435 45.6269 17.4593 45.5296 17.5216C45.4367 17.5795 45.2952 17.5528 45.1935 17.6106C45.0962 17.6641 44.9812 17.6774 44.8795 17.7308C44.7778 17.7843 44.6672 17.7932 44.5611 17.8421C44.4549 17.8911 44.4549 18.1582 44.3488 18.2028C44.2427 18.2473 44.0879 18.1582 43.9817 18.2028C43.8756 18.2473 43.7385 18.185 43.6324 18.2206C43.5262 18.2562 43.482 18.4699 43.3758 18.5055C43.2697 18.5411 43.1193 18.4432 43.0132 18.4788C42.9071 18.5144 42.8319 18.6524 42.7213 18.6836C42.6108 18.7148 42.4692 18.6213 42.3631 18.6524C42.257 18.6836 42.1597 18.7459 42.0491 18.7771C41.9385 18.8083 41.8766 19.0086 41.7661 19.0398C41.6555 19.0709 41.5538 19.1199 41.4476 19.1466C41.3415 19.1733 41.2 19.0709 41.0894 19.0976C40.9789 19.1244 40.886 19.2134 40.7754 19.2357C40.6649 19.2579 40.5676 19.3247 40.457 19.3514C40.3464 19.3781 40.2182 19.3114 40.1076 19.3336C39.9971 19.3559 39.8777 19.3114 39.7627 19.3336C39.6477 19.3559 39.5283 19.2846 39.4177 19.3069C39.3071 19.3292 39.2187 19.4583 39.1037 19.4761C38.9887 19.4939 38.8826 19.5072 38.772 19.5251C38.6615 19.5429 38.5686 19.6764 38.458 19.6942C38.3475 19.712 38.2236 19.6453 38.1131 19.6631C38.0025 19.6809 37.8875 19.6675 37.777 19.6853C37.6664 19.7031 37.5558 19.7076 37.4409 19.7254C37.3259 19.7432 37.2065 19.6586 37.0959 19.672C36.9853 19.6853 36.8792 19.7566 36.7686 19.7699C36.6581 19.7833 36.5519 19.859 36.4414 19.8723C36.3308 19.8857 36.2202 19.9124 36.1097 19.9257C35.9991 19.9391 35.8974 20.0504 35.7824 20.0638C35.6674 20.0771 35.5348 19.8367 35.4242 19.8456C35.3136 19.8545 35.2163 20.046 35.1014 20.0593C34.9864 20.0727 34.8802 20.1083 34.7652 20.1172C34.6503 20.1261 34.5309 20.0103 34.4203 20.0148C34.3097 20.0192 34.1992 20.0638 34.0886 20.0727C33.978 20.0816 33.8675 20.1395 33.7569 20.1439C33.6464 20.1484 33.5358 20.2374 33.4252 20.2418C33.3147 20.2463 33.1953 20.1706 33.0847 20.1795C32.9741 20.1884 32.8547 20.046 32.7397 20.0504C32.6248 20.0549 32.5186 20.2062 32.4081 20.2107C32.2975 20.2151 32.1781 20.0549 32.0631 20.0593C31.9481 20.0638 31.842 20.2329 31.727 20.2374C31.612 20.2418 31.5014 20.2552 31.3865 20.2597C31.2715 20.2641 31.1565 20.2151 31.0459 20.2151C30.9354 20.2151 30.816 20.1038 30.7054 20.1038C30.5948 20.1038 30.4798 20.2151 30.3649 20.2151C30.2499 20.2151 30.1349 20.3042 30.0199 20.3042C29.9049 20.3042 29.7944 20.2329 29.6794 20.2329C29.5644 20.2329 29.4538 20.0682 29.3433 20.0682C29.2327 20.0682 29.1133 20.3264 29.0027 20.322C28.8922 20.3175 28.7772 20.2997 28.6622 20.2997C28.5472 20.2997 28.4366 20.2997 28.3217 20.2997C28.2067 20.2997 28.1005 20.0727 27.99 20.0682C27.8794 20.0638 27.7644 20.0593 27.6539 20.0549C27.5433 20.0504 27.4239 20.1216 27.3133 20.1172C27.2028 20.1127 27.0834 20.2196 26.9684 20.2151C26.8534 20.2107 26.7384 20.2552 26.6278 20.2463C26.5173 20.2374 26.4023 20.2374 26.2873 20.2329C26.1723 20.2285 26.0662 20.1528 25.9512 20.1439C25.8362 20.135 25.7345 19.9925 25.6239 19.9836C25.5134 19.9747 25.4028 19.9347 25.2878 19.9257C25.1728 19.9168 25.049 20.0905 24.934 20.0771C24.819 20.0638 24.7173 19.9569 24.6068 19.948C24.4962 19.9391 24.3856 19.8723 24.2751 19.8634C24.1645 19.8545 24.0495 19.8456 23.939 19.8367C23.8284 19.8278 23.6913 20.0103 23.5807 19.997C23.4702 19.9836 23.3685 19.8412 23.2579 19.8278C23.1473 19.8144 23.0456 19.7031 22.9351 19.6898C22.8245 19.6764 22.7007 19.7432 22.5901 19.7254C22.4795 19.7076 22.3557 19.761 22.2452 19.7432C22.1346 19.7254 22.0196 19.7209 21.909 19.7076C21.7985 19.6942 21.6923 19.6319 21.5818 19.6141C21.4712 19.5963 21.3739 19.485 21.2634 19.4672C21.1528 19.4494 21.0378 19.4449 20.9272 19.4271C20.8167 19.4093 20.7105 19.3692 20.6 19.347C20.4894 19.3247 20.3789 19.3024 20.2683 19.2846C20.1577 19.2668 20.0516 19.2268 19.941 19.209C19.8305 19.1911 19.7022 19.249 19.5961 19.2268C19.4899 19.2045 19.375 19.1867 19.2644 19.1644C19.1538 19.1422 19.0212 19.2179 18.9106 19.1911C18.8 19.1644 18.6895 19.1377 18.5833 19.111C18.4772 19.0843 18.3622 19.062 18.2561 19.0353C18.1499 19.0086 18.0703 18.8483 17.9642 18.8216C17.858 18.7949 17.7342 18.7994 17.6281 18.7682C17.5219 18.737 17.4291 18.6346 17.3229 18.6035C17.2168 18.5723 17.0885 18.5901 16.9824 18.5589C16.8762 18.5278 16.7878 18.4254 16.6817 18.3898C16.5755 18.3541 16.4782 18.2829 16.3765 18.2473C16.2748 18.2117 16.1244 18.274 16.0227 18.2339C15.921 18.1939 15.7883 18.2072 15.6866 18.1627C15.5849 18.1182 15.461 18.1137 15.3593 18.0648C15.2532 18.0158 15.2488 17.7709 15.147 17.7219C15.0453 17.6685 14.833 17.8288 14.7402 17.7798C14.6385 17.7264 14.6561 17.4637 14.5633 17.4058C14.466 17.3435 14.3156 17.3791 14.2227 17.3168C14.1254 17.25 13.953 17.2901 13.8689 17.2233C13.7761 17.1476 13.7893 16.9562 13.7142 16.8805C13.6301 16.8003 13.5682 16.7113 13.5019 16.6267C13.4267 16.5332 13.294 16.4887 13.2454 16.3952C13.1879 16.2928 13.2542 16.1459 13.2277 16.0435C13.1967 15.9322 13.0508 15.8431 13.0508 15.7318C13.0508 15.6339 13.0596 15.5092 13.0817 15.3801C13.0994 15.2777 13.1127 15.1575 13.1437 15.0373C13.1702 14.9349 13.2365 14.8325 13.2763 14.7167C13.3117 14.6143 13.3692 14.5119 13.409 14.4006C13.4488 14.2982 13.5682 14.227 13.6169 14.1157C13.6567 14.0133 13.5682 13.8486 13.6169 13.7417C13.6611 13.6393 13.807 13.5815 13.8601 13.4746C13.9087 13.3767 13.838 13.2119 13.8866 13.1095C13.9353 13.0071 14.0105 12.9181 14.0635 12.8157C14.1166 12.7133 14.1608 12.6109 14.2139 12.5085C14.267 12.4061 14.5102 12.415 14.5633 12.3126C14.6163 12.2102 14.4527 11.992 14.5058 11.8896C14.5589 11.7872 14.8242 11.814 14.8817 11.7116C14.9392 11.6092 14.8552 11.4311 14.9127 11.3331C14.9701 11.2352 14.9613 11.0972 15.0232 10.9992C15.0851 10.9013 15.3549 10.9413 15.4124 10.8434C15.4699 10.7454 15.3991 10.5674 15.461 10.4694C15.523 10.3715 15.6468 10.3225 15.7131 10.2245C15.7795 10.1266 15.8502 10.0465 15.9166 9.94851C15.9829 9.85056 16.0669 9.77933 16.1333 9.68583C16.1996 9.59234 16.3057 9.53446 16.3721 9.44097C16.4384 9.34747 16.4694 9.23172 16.5357 9.13822C16.602 9.04473 16.6949 8.97349 16.7613 8.88C16.8276 8.7865 16.7347 8.57725 16.8055 8.48376C16.8762 8.39026 16.9293 8.29231 17.0001 8.19882C17.0708 8.10532 17.1416 8.01628 17.2124 7.92724C17.2831 7.8382 17.3494 7.7447 17.4202 7.65566C17.491 7.56662 17.7209 7.60669 17.7917 7.51764C17.8625 7.4286 17.9244 7.33065 17.9951 7.24606C18.0659 7.16147 18.1897 7.1125 18.2649 7.02791C18.3401 6.94332 18.2826 6.74297 18.3578 6.65393C18.433 6.56489 18.5435 6.51591 18.6231 6.43132C18.7027 6.34673 18.7337 6.22207 18.8133 6.13748C18.8929 6.05289 18.9548 5.95494 19.03 5.87035C19.1052 5.78576 19.2865 5.80357 19.3661 5.71898C19.4457 5.63439 19.5519 5.58542 19.6315 5.50528C19.7111 5.42514 19.6668 5.21144 19.7464 5.1313C19.826 5.05116 19.9897 5.05561 20.0737 4.97547C20.1577 4.89533 20.171 4.74396 20.255 4.66382C20.3391 4.58368 20.5425 4.64601 20.6309 4.57033C20.7194 4.49464 20.7725 4.38779 20.8609 4.3121C20.9494 4.23642 21.0599 4.19635 21.1484 4.12511C21.2368 4.05388 21.2191 3.85353 21.3076 3.77785C21.396 3.70216 21.5508 3.71552 21.6393 3.64874C21.7277 3.58195 21.8471 3.54634 21.9356 3.4751C22.024 3.40387 22.0506 3.24804 22.1434 3.18126C22.2363 3.11448 22.2761 2.97201 22.369 2.90523C22.4619 2.83845 22.6255 2.86961 22.7184 2.80728C22.8112 2.74495 22.9085 2.67817 23.0014 2.61584C23.0943 2.55351 23.2402 2.56687 23.3375 2.50454C23.4348 2.44221 23.4348 2.2285 23.5321 2.17063C23.6294 2.11275 23.7709 2.13056 23.8726 2.07268C23.9743 2.0148 24.1159 2.04151 24.2176 1.98809C24.3193 1.93466 24.3724 1.79219 24.4697 1.73877C24.567 1.68534 24.7218 1.73877 24.8235 1.6898C24.9252 1.64082 25.0181 1.57849 25.1242 1.52952C25.2303 1.48055 25.3055 1.37815 25.4072 1.33362C25.509 1.2891 25.6284 1.27575 25.7345 1.23123C25.8406 1.1867 25.9379 1.13773 26.0485 1.09766C26.1591 1.05759 26.2342 0.941837 26.3404 0.90622C26.4465 0.870603 26.5261 0.741491 26.6367 0.710326C26.7473 0.679161 26.8622 0.665804 26.9728 0.630187C27.0834 0.59457 27.1983 0.581214 27.3089 0.550049C27.4195 0.518884 27.53 0.483267 27.6406 0.461006C27.7512 0.438745 27.8971 0.572309 28.0077 0.550049C28.1182 0.527788 28.2023 0.363059 28.3172 0.34525C28.4322 0.327442 28.5472 0.331894 28.6578 0.318538C28.7683 0.305181 28.8833 0.296277 28.9983 0.287373C29.1133 0.278468 29.2327 0.349703 29.3433 0.340798C29.4538 0.331894 29.5423 0.153809 29.6573 0.153809C29.7722 0.153809 29.8872 0.274016 30.0022 0.274016C30.1172 0.274016 30.2322 0.153809 30.3472 0.153809C30.4622 0.153809 30.5683 0.305181 30.6789 0.314086C30.7894 0.32299 30.9 0.371963 31.0105 0.380868C31.1211 0.389772 31.2494 0.282921 31.3599 0.296277C31.4705 0.309633 31.5943 0.274016 31.7049 0.296277C31.8154 0.318538 31.9348 0.318538 32.0454 0.340798C32.156 0.363059 32.2665 0.416485 32.3771 0.438745C32.4877 0.461006 32.5673 0.621283 32.6778 0.647996C32.7884 0.674709 32.9255 0.599022 33.036 0.630187C33.1466 0.661352 33.2262 0.78156 33.3368 0.817177C33.4473 0.852794 33.5491 0.897315 33.6552 0.937385C33.7613 0.977454 33.9117 0.897315 34.0178 0.937385C34.124 0.977454 34.2036 1.09321 34.3097 1.13328C34.4159 1.17335 34.5264 1.20896 34.6281 1.25349C34.7299 1.29801 34.8625 1.2891 34.9643 1.33808C35.066 1.38705 35.119 1.53842 35.2208 1.59185C35.3225 1.64527 35.4507 1.64082 35.548 1.69425C35.6453 1.74767 35.7072 1.88124 35.8045 1.93466C35.9018 1.98809 36.0478 1.96138 36.1495 2.01925C36.2512 2.07713 36.2777 2.24631 36.375 2.30419C36.4723 2.36207 36.6006 2.37097 36.6979 2.42885C36.7952 2.48673 36.9455 2.46002 37.0428 2.52235C37.1401 2.58468 37.1888 2.71379 37.2816 2.78057C37.3745 2.84735 37.4541 2.93194 37.547 2.99872C37.6399 3.06551 37.6974 3.17681 37.7902 3.24359C37.8831 3.31037 38.0467 3.27921 38.1352 3.35044C38.2236 3.42168 38.2723 3.54188 38.3607 3.61312C38.4492 3.68435 38.4978 3.80456 38.5863 3.87579C38.6747 3.94703 38.8737 3.8847 38.9622 3.95593C39.0506 4.02717 39.0772 4.17409 39.1612 4.24977C39.2452 4.32546 39.316 4.41896 39.4 4.49464C39.484 4.57033 39.6742 4.53026 39.7582 4.6104C39.8423 4.69054 39.8776 4.81965 39.9617 4.89533C40.0457 4.97102 40.059 5.12239 40.143 5.20253C40.227 5.28267 40.373 5.29157 40.4526 5.37171C40.5322 5.45185 40.5985 5.54535 40.6781 5.62994C40.7577 5.71453 40.8108 5.82138 40.886 5.90152C40.9612 5.98166 41.0806 6.03063 41.1558 6.11522C41.2309 6.19981 41.3017 6.2933 41.3769 6.3779C41.4521 6.46249 41.6201 6.46694 41.6953 6.55153C41.7705 6.63612 41.7926 6.77414 41.8634 6.85873C41.9341 6.94332 42.0535 6.99674 42.1287 7.08133C42.2039 7.16592 42.2481 7.28168 42.3189 7.37072C42.3896 7.45976 42.4869 7.531 42.5577 7.61559C42.6284 7.70018 42.6727 7.82039 42.7434 7.90943C42.8142 7.99847 42.8186 8.14539 42.8849 8.23444C42.9513 8.32348 43.0486 8.39917 43.1193 8.48821C43.1901 8.57725 43.1724 8.73308 43.2432 8.82657C43.3139 8.92006 43.4997 8.92006 43.566 9.01356C43.6324 9.10705 43.6677 9.22726 43.7341 9.31631C43.8004 9.40535 43.796 9.55672 43.8579 9.65022C43.9198 9.74371 43.9596 9.85501 44.026 9.95296C44.0923 10.0509 44.2869 10.0509 44.3488 10.1489C44.4107 10.2468 44.5301 10.3047 44.592 10.4026C44.6539 10.5006 44.707 10.603 44.7689 10.6965C44.8308 10.79 44.7336 10.9903 44.7955 11.0838C44.8574 11.1773 45.0608 11.1907 45.1183 11.2886C45.1758 11.3865 45.1714 11.5246 45.2289 11.6225C45.2864 11.7205 45.3129 11.8407 45.366 11.9386C45.419 12.0366 45.481 12.139 45.534 12.2369C45.5871 12.3349 45.6844 12.415 45.7375 12.5129C45.7905 12.6109 45.8303 12.7222 45.8834 12.8246C45.9365 12.927 45.963 13.0427 46.0117 13.1451C46.0647 13.252 46.2062 13.3099 46.2505 13.4123C46.2947 13.5147 46.3301 13.6304 46.3743 13.7328C46.4229 13.8397 46.4141 13.9688 46.4539 14.0667C46.4981 14.178 46.6618 14.2359 46.7016 14.3383C46.7414 14.4496 46.6795 14.5965 46.7148 14.6989C46.7546 14.8147 46.6662 14.9572 46.6927 15.0596C46.7237 15.1798 46.9713 15.2421 46.989 15.34C47.0111 15.4647 46.936 15.5983 46.936 15.6962V15.7007Z" fill="#966A09"/>
<path d="M47.5905 13.4879C47.6524 13.6081 47.7497 13.626 47.8028 13.7417C47.8603 13.8664 47.9178 13.9866 47.9708 14.1023C48.0283 14.227 47.9929 14.3873 48.0416 14.503C48.0947 14.6277 48.1079 14.7657 48.1521 14.8859C48.2008 15.015 48.245 15.1397 48.2848 15.2599C48.3291 15.3935 48.3025 15.5359 48.3335 15.6561C48.3733 15.7941 48.5988 15.8787 48.6209 15.9945C48.6475 16.1414 48.5856 16.2928 48.5856 16.4041C48.5856 16.5287 48.4573 16.6311 48.4219 16.7514C48.3865 16.8716 48.4529 17.0229 48.391 17.1342C48.3335 17.2366 48.1477 17.2544 48.0681 17.3568C47.9929 17.4503 48.0637 17.6819 47.9708 17.7709C47.8868 17.8555 47.7187 17.8555 47.617 17.9356C47.5242 18.0113 47.4667 18.1404 47.3605 18.2117C47.2632 18.2784 47.1836 18.3942 47.0731 18.4565C46.9713 18.5189 46.8652 18.5945 46.7546 18.6569C46.6485 18.7147 46.4141 18.5278 46.3035 18.5856C46.193 18.6435 46.1001 18.7147 45.9851 18.7682C45.8701 18.8216 45.7596 18.8528 45.6446 18.9017C45.5296 18.9507 45.4854 19.1555 45.366 19.2C45.2466 19.2446 45.1227 19.249 45.0033 19.2891C44.8839 19.3291 44.7911 19.4271 44.6716 19.4672C44.5522 19.5072 44.3798 19.3559 44.2604 19.3959C44.1409 19.436 44.0923 19.6898 43.9729 19.7254C43.8535 19.761 43.6854 19.6096 43.566 19.6452C43.4466 19.6809 43.3847 19.9124 43.2653 19.948C43.1459 19.9836 43.0265 20.0103 42.9071 20.0415C42.7877 20.0726 42.655 20.0459 42.5356 20.0771C42.4162 20.1083 42.3145 20.2151 42.195 20.2418C42.0756 20.2685 41.9562 20.2953 41.8324 20.3175C41.7086 20.3398 41.5892 20.3576 41.4698 20.3843C41.3503 20.411 41.1956 20.2641 41.0762 20.2908C40.9567 20.3175 40.8506 20.4199 40.7312 20.4466C40.6118 20.4733 40.5057 20.5713 40.3818 20.5891C40.258 20.6069 40.112 20.46 39.9882 20.4822C39.8644 20.5045 39.7671 20.6425 39.6433 20.6603C39.5194 20.6781 39.3823 20.5891 39.2629 20.6069C39.1435 20.6247 39.0064 20.5624 38.887 20.5802C38.7676 20.598 38.6703 20.8028 38.5465 20.8206C38.4227 20.8384 38.2944 20.7805 38.1706 20.7983C38.0467 20.8162 37.9362 20.9186 37.8124 20.9319C37.6885 20.9453 37.5603 20.8963 37.4409 20.9141C37.3215 20.9319 37.202 20.9942 37.0782 21.0076C36.9544 21.021 36.835 21.061 36.7156 21.0744C36.5962 21.0877 36.4723 21.11 36.3485 21.1189C36.2247 21.1278 36.092 21.021 35.9682 21.0343C35.8443 21.0477 35.7205 21.0343 35.5967 21.0477C35.4729 21.061 35.3623 21.2347 35.2385 21.2436C35.1146 21.2525 34.982 21.0966 34.8581 21.1055C34.7343 21.1144 34.6193 21.2391 34.4955 21.248C34.3717 21.2569 34.239 21.0699 34.1151 21.0788C33.9913 21.0877 33.8808 21.3237 33.7569 21.3282C33.6331 21.3326 33.5093 21.2925 33.3854 21.3014C33.2616 21.3103 33.1378 21.2569 33.0095 21.2614C32.8813 21.2658 32.7619 21.2881 32.638 21.2925C32.5142 21.297 32.3904 21.2614 32.2665 21.2658C32.1427 21.2703 32.0189 21.2525 31.8951 21.2569C31.7712 21.2614 31.6474 21.2391 31.5236 21.2436C31.3997 21.248 31.2759 21.4127 31.1521 21.4172C31.0282 21.4216 30.9 21.2747 30.7762 21.2747C30.6523 21.2747 30.5285 21.248 30.4002 21.248C30.272 21.248 30.1482 21.2168 30.0243 21.2168C29.9005 21.2168 29.7767 21.2258 29.6528 21.2258C29.529 21.2258 29.4052 21.4172 29.2814 21.4172C29.1575 21.4172 29.0381 21.1723 28.9143 21.1723C28.7905 21.1723 28.6666 21.1857 28.5428 21.1857C28.419 21.1857 28.2907 21.4439 28.1669 21.4395C28.0431 21.435 27.9281 21.1412 27.8042 21.1412C27.6804 21.1412 27.5522 21.2391 27.4283 21.2347C27.3045 21.2302 27.1718 21.3905 27.0524 21.386C26.933 21.3816 26.8136 21.1812 26.6898 21.1723C26.5659 21.1634 26.4421 21.1946 26.3183 21.1901C26.1945 21.1857 26.0618 21.3014 25.9424 21.2925C25.823 21.2836 25.6947 21.2525 25.5709 21.248C25.4471 21.2436 25.3365 21.0254 25.2127 21.0165C25.0888 21.0076 24.9517 21.199 24.8279 21.1901C24.7041 21.1812 24.5802 21.1634 24.4564 21.1545C24.3326 21.1456 24.2088 21.1545 24.0849 21.1456C23.9611 21.1367 23.8328 21.1679 23.709 21.159C23.5852 21.1501 23.479 20.9586 23.3552 20.9453C23.2314 20.9319 23.0899 21.1055 22.966 21.0922C22.8422 21.0788 22.7493 20.8117 22.6255 20.7983C22.5017 20.785 22.3601 20.9408 22.2363 20.9275C22.1125 20.9141 21.9931 20.8785 21.8693 20.8607C21.7454 20.8429 21.626 20.7983 21.5066 20.7805C21.3872 20.7627 21.2545 20.7939 21.1307 20.7761C21.0069 20.7583 20.8875 20.736 20.7636 20.7138C20.6398 20.6915 20.5248 20.6203 20.4054 20.6025C20.286 20.5846 20.1533 20.6114 20.0295 20.5935C19.9057 20.5757 19.8084 20.4199 19.689 20.4021C19.5696 20.3843 19.4059 20.5713 19.2865 20.549C19.1671 20.5268 19.0742 20.3264 18.9548 20.3042C18.8354 20.2819 18.716 20.2418 18.5966 20.2196C18.4772 20.1973 18.3401 20.2418 18.2207 20.2151C18.1013 20.1884 17.9907 20.0994 17.8757 20.0727C17.7607 20.0459 17.5927 20.184 17.4777 20.1572C17.3627 20.1305 17.2477 20.0459 17.1328 20.0148C17.0178 19.9836 16.8763 20.0148 16.7568 19.9836C16.6374 19.9524 16.5225 19.8857 16.4075 19.8545C16.2925 19.8233 16.2306 19.5651 16.1156 19.5295C16.0006 19.4939 15.837 19.5963 15.722 19.5562C15.607 19.5161 15.5362 19.3247 15.4212 19.2846C15.3063 19.2446 15.1117 19.4182 14.9967 19.3737C14.8817 19.3291 14.7535 19.3069 14.6385 19.2624C14.5235 19.2178 14.4837 18.9774 14.3731 18.9329C14.2626 18.8884 14.1343 18.8617 14.0237 18.8127C13.9088 18.7593 13.8247 18.6524 13.7186 18.599C13.6036 18.5411 13.4754 18.5322 13.3692 18.4743C13.2586 18.412 13.0641 18.5055 12.9579 18.4432C12.8474 18.3764 12.7678 18.2651 12.6705 18.1983C12.5643 18.1271 12.5732 17.9134 12.4803 17.8377C12.3786 17.7575 12.1884 17.7976 12.1044 17.7175C12.0115 17.6284 11.8567 17.5884 11.7815 17.4993C11.7019 17.3969 11.8479 17.152 11.7904 17.0496C11.7285 16.9383 11.5073 16.9027 11.4764 16.7914C11.441 16.6712 11.41 16.5332 11.41 16.413C11.41 16.3017 11.4233 16.1592 11.4498 16.0078C11.472 15.8921 11.6842 15.8075 11.724 15.6739C11.755 15.5582 11.724 15.4113 11.7683 15.2821C11.8081 15.1619 11.7638 15.0061 11.8125 14.877C11.8567 14.7612 11.8744 14.6232 11.9275 14.4941C11.9761 14.3784 12.0778 14.276 12.1353 14.1513C12.1884 14.0356 12.3476 13.9643 12.4051 13.8397C12.4626 13.715 12.3476 13.6304 12.4051 13.5102C12.2813 13.5325 12.2326 13.3989 12.1088 13.4256C11.985 13.4523 11.87 13.5191 11.7462 13.5458C11.6223 13.5725 11.4985 13.5992 11.3791 13.626C11.2597 13.6527 11.1712 13.8664 11.0518 13.8886C10.9324 13.9109 10.7776 13.8174 10.6582 13.8486C10.5388 13.8797 10.4415 14.0266 10.3177 14.0534C10.1939 14.0801 10.0479 13.9999 9.92409 14.0266C9.80026 14.0534 9.64105 13.9242 9.51722 13.9554C9.39339 13.9866 9.32263 14.2136 9.1988 14.2448C9.07497 14.276 8.91576 14.1513 8.79193 14.1825C8.6681 14.2136 8.5708 14.3249 8.44697 14.3561C8.32314 14.3873 8.18604 14.3561 8.06664 14.3962C7.94723 14.4362 7.88089 14.6544 7.76148 14.69C7.64208 14.7256 7.47844 14.6143 7.35904 14.6499C7.23963 14.6856 7.11138 14.6989 6.99197 14.739C6.87256 14.7791 6.77085 14.8815 6.65586 14.9171C6.54088 14.9527 6.46127 15.1219 6.34186 15.1619C6.22246 15.202 6.0942 15.2109 5.97922 15.2554C5.86423 15.3 5.70502 15.2376 5.59004 15.2821C5.47505 15.3267 5.33796 15.3267 5.22297 15.3712C5.10799 15.4157 5.05049 15.6205 4.93551 15.665C4.82052 15.7096 4.69669 15.7452 4.58613 15.7941C4.47557 15.8431 4.34732 15.8698 4.23233 15.9233C4.11735 15.9767 3.99352 16.0078 3.88295 16.0613C3.77239 16.1147 3.59549 16.0524 3.48493 16.1102C3.37437 16.1681 3.31245 16.3329 3.20631 16.3907C3.10017 16.4486 2.90116 16.364 2.79502 16.4219C2.68888 16.4798 2.71984 16.7959 2.61812 16.8582C2.5164 16.9205 2.27316 16.787 2.17145 16.8582C2.06973 16.9294 2.10069 17.201 1.99897 17.2723C1.89725 17.3435 1.73362 17.3346 1.64075 17.4103C1.53903 17.4904 1.32675 17.4325 1.23388 17.5127C1.13658 17.5973 1.0614 17.713 0.977373 17.7976C0.888923 17.8911 0.924303 18.1004 0.849121 18.1938C0.765093 18.2918 0.650109 18.3586 0.583771 18.461C0.513011 18.5678 0.477631 18.688 0.420139 18.7993C0.362646 18.9151 0.367069 19.0442 0.327266 19.16C0.287464 19.2757 0.0398038 19.347 0.0176914 19.4672C-0.00442113 19.5874 0.163634 19.7387 0.163634 19.8634C0.163634 19.9881 0.150366 20.1083 0.172479 20.2285C0.194591 20.3487 0.225549 20.4644 0.265351 20.5846C0.305154 20.7049 0.221126 20.8785 0.278619 20.9898C0.331689 21.0966 0.548391 21.1189 0.619151 21.2258C0.685488 21.3237 0.809318 21.3771 0.888923 21.4751C0.964106 21.5686 0.959683 21.7333 1.04813 21.8223C1.13216 21.9069 1.2383 21.9737 1.3356 22.0583C1.42405 22.1384 1.57883 22.1429 1.67613 22.223C1.77342 22.3032 1.74689 22.5302 1.84861 22.6059C1.95032 22.6816 2.10953 22.6549 2.21567 22.7261C2.32181 22.7974 2.4368 22.8285 2.54736 22.8953C2.65792 22.9621 2.77733 22.9799 2.88789 23.0422C2.99845 23.1046 3.10017 23.1535 3.21073 23.2159C3.3213 23.2782 3.4009 23.3717 3.51589 23.4296C3.63087 23.4874 3.75028 23.5052 3.86084 23.5587C3.9714 23.6121 3.97583 23.897 4.09081 23.9505C4.2058 24.0039 4.35174 23.9683 4.46672 24.0172C4.58171 24.0662 4.72323 24.044 4.83821 24.0885C4.9532 24.133 5.08145 24.1419 5.19644 24.1864C5.31142 24.2309 5.36007 24.4402 5.47948 24.4847C5.59888 24.5292 5.73156 24.5159 5.84654 24.5604C5.96153 24.6049 6.08978 24.6049 6.20919 24.645C6.3286 24.6851 6.39935 24.8542 6.51434 24.8943C6.62932 24.9344 6.81065 24.783 6.92563 24.8186C7.04062 24.8542 7.11138 25.0457 7.23078 25.0813C7.35019 25.1169 7.46518 25.1614 7.58458 25.1971C7.70399 25.2327 7.84551 25.1748 7.96492 25.2104C8.08433 25.246 8.18162 25.3529 8.30103 25.384C8.42044 25.4152 8.55311 25.4019 8.67252 25.433C8.79193 25.4642 8.89807 25.5488 9.01747 25.5799C9.13688 25.6111 9.26513 25.6067 9.38454 25.6334C9.50395 25.6601 9.61009 25.7447 9.7295 25.7758C9.8489 25.807 9.95947 25.8782 10.0789 25.9049C10.1983 25.9317 10.3752 25.7091 10.499 25.7358C10.6228 25.7625 10.698 25.9673 10.8219 25.994C10.9457 26.0207 11.0518 26.1008 11.1712 26.1276C11.2906 26.1543 11.4322 26.0875 11.5516 26.1142C11.671 26.1409 11.7727 26.2745 11.8921 26.2967C12.0115 26.319 12.184 26.0919 12.3034 26.1142C12.4228 26.1365 12.5466 26.1498 12.6705 26.1721C12.7943 26.1943 12.9048 26.2611 13.0243 26.2834C13.1437 26.3056 13.2498 26.4214 13.3692 26.4437C13.4886 26.4659 13.6257 26.3902 13.7495 26.4125C13.8734 26.4348 13.9751 26.5461 14.0989 26.5639C14.2228 26.5817 14.3289 26.6885 14.4483 26.7063C14.5677 26.7241 14.6871 26.7687 14.8109 26.7865C14.9348 26.8043 15.0586 26.8132 15.178 26.831C15.2974 26.8488 15.4389 26.7464 15.5628 26.7642C15.6866 26.782 15.7972 26.8666 15.921 26.8844C16.0448 26.9022 16.1731 26.8488 16.2969 26.8622C16.4207 26.8755 16.5534 26.7954 16.6772 26.8087C16.8011 26.8221 16.9028 26.9868 17.0266 27.0046C17.1504 27.0224 17.2831 26.9378 17.407 26.9512C17.5308 26.9646 17.659 26.9334 17.7784 26.9512C17.8978 26.969 18.0173 27.0358 18.1411 27.0491C18.2649 27.0625 18.3843 27.0981 18.5082 27.1115C18.632 27.1248 18.747 27.2139 18.8708 27.2272C18.9946 27.2406 19.114 27.294 19.2379 27.3074C19.3617 27.3207 19.4899 27.294 19.6138 27.3074C19.7376 27.3207 19.8482 27.4365 19.972 27.4454C20.0958 27.4543 20.2418 27.2139 20.3656 27.2272C20.4894 27.2406 20.6088 27.2718 20.7327 27.2807C20.8565 27.2896 20.9626 27.481 21.0865 27.4899C21.2103 27.4988 21.3474 27.3519 21.4668 27.3608C21.5862 27.3697 21.6968 27.6057 21.8206 27.6146C21.9444 27.6235 22.0683 27.6057 22.1921 27.6146C22.3159 27.6235 22.453 27.3964 22.5769 27.4053C22.7007 27.4142 22.8112 27.5879 22.9351 27.5968C23.0589 27.6057 23.1783 27.668 23.3021 27.6769C23.426 27.6858 23.5586 27.5344 23.6825 27.5389C23.8063 27.5433 23.9213 27.6769 24.0495 27.6814C24.1778 27.6858 24.3016 27.5522 24.4255 27.5567C24.5493 27.5611 24.6731 27.5567 24.7969 27.5567C24.9208 27.5567 25.0446 27.57 25.1684 27.5745C25.2923 27.579 25.4161 27.5433 25.5399 27.5478C25.6638 27.5522 25.7787 27.7704 25.9026 27.7748C26.0264 27.7793 26.1546 27.6724 26.2785 27.6724C26.4023 27.6724 26.5261 27.6724 26.65 27.6724C26.7738 27.6724 26.8976 27.6947 27.0215 27.6992C27.1453 27.7036 27.2691 27.6324 27.3974 27.6368C27.5256 27.6413 27.645 27.6992 27.7689 27.7036C27.8927 27.7081 28.0165 27.7125 28.1404 27.7125C28.2642 27.7125 28.388 27.8327 28.5118 27.8372C28.6357 27.8416 28.7639 27.7303 28.8878 27.7348C29.0116 27.7392 29.1354 27.855 29.2637 27.855C29.3919 27.855 29.5157 27.6279 29.6396 27.6279C29.7634 27.6279 29.8917 27.8105 30.0155 27.8105C30.1393 27.8105 30.2631 27.8105 30.387 27.8105C30.5108 27.8105 30.6346 27.8416 30.7585 27.8416C30.8823 27.8416 31.0061 27.806 31.13 27.806C31.2538 27.806 31.3776 27.6324 31.5015 27.6279C31.6253 27.6235 31.7491 27.6858 31.8729 27.6814C31.9968 27.6769 32.1206 27.6457 32.2444 27.6457C32.3683 27.6457 32.4965 27.8105 32.6203 27.8105C32.7442 27.8105 32.868 27.7348 32.9918 27.7303C33.1157 27.7259 33.2351 27.5879 33.3589 27.5834C33.4827 27.579 33.6066 27.579 33.7304 27.5745C33.8542 27.57 33.978 27.619 34.1019 27.6146C34.2257 27.6101 34.3584 27.8194 34.4822 27.8149C34.606 27.8105 34.7255 27.7125 34.8493 27.7081C34.9731 27.7036 35.0925 27.5923 35.2163 27.5834C35.3402 27.5745 35.4684 27.6992 35.5923 27.6903C35.7161 27.6814 35.8399 27.7036 35.9637 27.6992C36.0876 27.6947 36.207 27.5656 36.3308 27.5567C36.4546 27.5478 36.5785 27.5255 36.7023 27.5211C36.8261 27.5166 36.9632 27.7036 37.0871 27.6947C37.2109 27.6858 37.3347 27.6546 37.4586 27.6457C37.5824 27.6368 37.6974 27.5077 37.8212 27.4988C37.945 27.4899 38.06 27.3652 38.1838 27.3563C38.3077 27.3474 38.4359 27.4187 38.5598 27.4098C38.6836 27.4009 38.8074 27.392 38.9312 27.3831C39.0551 27.3742 39.1922 27.5077 39.316 27.4944C39.4398 27.481 39.546 27.2539 39.6698 27.245C39.7936 27.2361 39.9352 27.4142 40.059 27.4009C40.1828 27.3875 40.2934 27.2539 40.4172 27.2406C40.541 27.2272 40.6649 27.2005 40.7843 27.1872C40.9037 27.1738 41.0275 27.1471 41.1513 27.1337C41.2752 27.1204 41.4034 27.1426 41.5228 27.1293C41.6422 27.1159 41.7749 27.1471 41.8987 27.1337C42.0226 27.1204 42.1508 27.156 42.2747 27.1426C42.3985 27.1293 42.5046 26.969 42.6285 26.9557C42.7523 26.9423 42.8982 27.0981 43.0176 27.0848C43.137 27.0714 43.2609 27.018 43.3803 27.0002C43.4997 26.9824 43.6324 27.0135 43.7562 27.0002C43.88 26.9868 43.9729 26.7598 44.0967 26.7464C44.2206 26.733 44.3621 26.8443 44.4815 26.8265C44.6009 26.8087 44.738 26.8711 44.8618 26.8533C44.9856 26.8354 45.0785 26.6306 45.2023 26.6084C45.3262 26.5861 45.45 26.595 45.5738 26.5772C45.6977 26.5594 45.8348 26.644 45.9586 26.6217C46.0824 26.5995 46.1886 26.5015 46.3124 26.4837C46.4362 26.4659 46.5733 26.5416 46.6971 26.5193C46.821 26.4971 46.9183 26.3413 47.0377 26.319C47.1571 26.2967 47.2632 26.1765 47.3826 26.1543C47.502 26.132 47.6613 26.2923 47.7807 26.2656C47.9001 26.2389 48.0239 26.2255 48.1477 26.1988C48.2716 26.1721 48.3998 26.1988 48.5192 26.1721C48.6386 26.1454 48.758 26.0919 48.8774 26.0652C48.9968 26.0385 49.0853 25.8515 49.2047 25.8248C49.3241 25.7981 49.4568 25.8115 49.5762 25.7847C49.6956 25.758 49.8194 25.7313 49.9388 25.7046C50.0582 25.6779 50.1821 25.6645 50.3015 25.6334C50.4209 25.6022 50.5315 25.5265 50.6509 25.4998C50.7703 25.4731 50.9295 25.5933 51.0489 25.5621C51.1683 25.531 51.3054 25.5621 51.4248 25.5265C51.5442 25.4909 51.6194 25.295 51.7388 25.2638C51.8582 25.2327 51.9643 25.1525 52.0793 25.1169C52.1943 25.0813 52.3181 25.059 52.4376 25.0234C52.557 24.9878 52.7029 25.0501 52.8223 25.0145C52.9417 24.9789 53.0788 25.0056 53.1938 24.9655C53.3088 24.9255 53.3663 24.7029 53.4813 24.6628C53.5962 24.6227 53.7378 24.6494 53.8527 24.6094C53.9677 24.5693 54.0916 24.5426 54.2066 24.5025C54.3215 24.4625 54.4542 24.4625 54.5692 24.4179C54.6842 24.3734 54.7903 24.3022 54.9053 24.2577C55.0203 24.2131 55.1618 24.2265 55.2724 24.182C55.3829 24.1375 55.467 23.9994 55.5775 23.9505C55.6881 23.9015 55.8119 23.8703 55.9225 23.8169C56.033 23.7635 56.1746 23.7679 56.2851 23.7145C56.3957 23.6611 56.4443 23.4696 56.5505 23.4162C56.6566 23.3628 56.8203 23.3984 56.9264 23.3405C57.0325 23.2826 57.0812 23.109 57.1829 23.0467C57.2846 22.9843 57.3819 22.9042 57.488 22.8419C57.5942 22.7795 57.8419 22.9354 57.9436 22.8686C58.0453 22.8018 58.063 22.6015 58.1603 22.5302C58.2576 22.459 58.3991 22.4323 58.492 22.3566C58.5892 22.2765 58.6069 22.1073 58.6954 22.0271C58.7883 21.9425 58.9342 21.9203 59.0182 21.8312C59.1067 21.7377 59.12 21.5908 59.1951 21.4973C59.2747 21.3994 59.3278 21.2925 59.3941 21.1946C59.4649 21.0877 59.5666 21.0165 59.6197 20.9097C59.6772 20.7983 59.7612 20.7004 59.801 20.5846C59.8408 20.4689 59.7966 20.3309 59.8187 20.2107C59.8408 20.0905 59.8497 19.9792 59.8497 19.8545C59.8497 19.7298 60.031 19.5829 60.0089 19.4583C59.9868 19.3336 59.7568 19.2624 59.7126 19.1422C59.6683 19.0219 59.6108 18.9284 59.5534 18.8171C59.4959 18.7103 59.6108 18.4921 59.5401 18.3853C59.4738 18.2829 59.3765 18.1894 59.2924 18.087C59.2128 17.9935 59.1465 17.8733 59.0536 17.7843C58.9696 17.6952 58.8281 17.6551 58.7308 17.5705C58.6379 17.4904 58.5229 17.4325 58.4212 17.3524C58.3195 17.2723 58.1912 17.25 58.0851 17.1743C57.9789 17.0986 57.9613 16.9116 57.8551 16.8404C57.749 16.7692 57.5544 16.8538 57.4438 16.787C57.3333 16.7202 57.2537 16.6222 57.1431 16.5599C57.0325 16.4976 56.9662 16.364 56.8556 16.3017C56.7451 16.2394 56.6389 16.1815 56.5239 16.1236C56.409 16.0657 56.2365 16.1459 56.1259 16.0924C56.0154 16.039 55.9534 15.8743 55.8385 15.8209C55.7235 15.7674 55.5775 15.7941 55.4625 15.7452C55.3476 15.6962 55.2503 15.6116 55.1309 15.5626C55.0114 15.5137 54.9318 15.3801 54.8169 15.3356C54.7019 15.2911 54.5294 15.3935 54.41 15.3489C54.2906 15.3044 54.1933 15.2198 54.0739 15.1798C53.9545 15.1397 53.8793 14.9794 53.7599 14.9349C53.6405 14.8904 53.4503 15.0729 53.3309 15.0328C53.2115 14.9928 53.1628 14.7479 53.0434 14.7123C52.924 14.6767 52.7825 14.7123 52.6631 14.6722C52.5437 14.6321 52.3801 14.7479 52.2607 14.7123C52.1412 14.6767 52.0882 14.4095 51.9688 14.3739C51.8494 14.3383 51.699 14.4095 51.5796 14.3739C51.4602 14.3383 51.3364 14.3249 51.2125 14.2893C51.0887 14.2537 50.9737 14.2225 50.8499 14.1914C50.726 14.1602 50.5934 14.1914 50.4695 14.1602C50.3457 14.129 50.2573 13.9777 50.1334 13.951C50.0096 13.9242 49.8681 13.9821 49.7487 13.951C49.6293 13.9198 49.4922 13.9599 49.3683 13.9332C49.2445 13.9064 49.1561 13.7373 49.0322 13.7105C48.9084 13.6838 48.7625 13.7862 48.6386 13.764C48.5148 13.7417 48.4396 13.4924 48.3158 13.4657C48.192 13.439 48.0681 13.4256 47.9443 13.4033C47.8205 13.3811 47.7453 13.5102 47.617 13.4879H47.5905Z" fill="#966A09"/>
<path d="M26.0485 4.85083L25.7964 5.06008L25.5267 5.25152L25.2657 5.45632L24.9738 5.6255L24.8102 5.9416L24.5095 6.10633L24.3503 6.41798L24.107 6.64059L23.8859 6.88546L23.5321 7.01457L23.4658 7.40191L23.1075 7.53102L23.0014 7.87383L22.8466 8.17213L22.484 8.31459L22.3911 8.66186L22.1479 8.89782L21.9489 9.1694L21.7454 9.43653L21.5331 9.69476L21.3872 10.002L21.2015 10.2824L21.1838 10.652L21.0422 10.9547L20.8963 11.253L20.7636 11.5558L20.4806 11.7962L20.3656 12.1123L20.1975 12.4061L20.2108 12.7712L20.0693 13.0784L20.0162 13.4123L19.941 13.7373L19.7509 14.0356L19.6447 14.3561L19.7243 14.7168L19.574 15.0284L19.6049 15.3757L19.4192 15.6918" stroke="#EDE4CB" stroke-width="1.79" stroke-miterlimit="10"/>
<path d="M33.8542 4.76172L34.1284 4.95761L34.3672 5.19358L34.606 5.42063L34.8051 5.69667L35.1279 5.83914L35.3048 6.13298L35.6144 6.29325L35.8311 6.54702L36.061 6.78744L36.1539 7.15252L36.5254 7.26827L36.5962 7.6467L36.9057 7.81588L37.1622 8.03849L37.2065 8.43028L37.5072 8.62172L37.6487 8.92892L37.8256 9.2094L37.9893 9.50324L38.1263 9.81044L38.3298 10.0776L38.4713 10.3759L38.7765 10.5896L38.9445 10.879L39.0949 11.1817L39.2408 11.48L39.232 11.854L39.3735 12.1567L39.4443 12.4817L39.6919 12.7489L39.7627 13.0783L39.9086 13.3855L40.0192 13.7061L39.9926 14.0578L40.0413 14.3917L40.2536 14.69L40.2226 15.0372L40.3553 15.3578L40.2536 15.7095" stroke="#EDE4CB" stroke-width="1.79" stroke-miterlimit="10"/>
<path d="M29.9447 4.80627L29.9049 5.14018L30.0509 5.46964L29.958 5.80355L29.9138 6.13746L30.0111 6.47137L30.0907 6.80528L29.9889 7.14365V7.47756L29.9049 7.81147L30.0641 8.14538L29.9889 8.47929L29.9005 8.8132L29.9889 9.14711L29.8828 9.48102L29.8961 9.81938L29.9491 10.1533L29.9226 10.4872L29.9314 10.8211L30.0022 11.155L30.0818 11.4889L30.0641 11.8228L30.0509 12.1568L30.0597 12.4907L29.9138 12.8246L30.0464 13.1585L30.0243 13.4968L30.0199 13.8308L29.9447 14.1647L30.0774 14.503L29.9668 14.8369L30.0774 15.1753L29.9491 15.5092L29.9138 15.8476L30.0243 16.1815L30.073 16.5198L30.0907 16.8582" stroke="#EDE4CB" stroke-width="1.79" stroke-miterlimit="10"/>
<path d="M5.6033 21.1011L5.93499 20.9408L6.21361 20.6292L6.64701 20.7939L6.96543 20.598L7.28827 20.4244L7.65976 20.3932L7.93396 20.0504L8.37621 20.2463L8.69463 20.046L9.044 19.948L9.34031 19.6764L9.7118 19.6319L10.0302 19.4271" stroke="#EDE4CB" stroke-width="2" stroke-miterlimit="10"/>
<path d="M15.7706 22.0005L15.576 22.3522L15.262 22.5481L14.9878 22.7974L14.6694 22.98L14.3731 23.2026L14.0901 23.4385L13.8424 23.719L13.4886 23.8615L13.126 23.9906L12.9048 24.3111L12.5732 24.4848" stroke="#EDE4CB" stroke-width="2" stroke-miterlimit="10"/>
<path d="M30.0509 23.4117L29.9624 23.7768L29.9093 24.1374L29.9536 24.4981L29.9712 24.8587L30.0907 25.2193L30.0155 25.5844L29.9889 25.945V26.3101" stroke="#EDE4CB" stroke-width="2" stroke-miterlimit="10"/>
<path d="M22.4795 23.0022L22.4353 23.3762L22.1877 23.6656V24.0574L21.9931 24.369L21.9312 24.7341L21.6791 25.019L21.6437 25.4019L21.4226 25.7046L21.3783 26.0786" stroke="#EDE4CB" stroke-width="2" stroke-miterlimit="10"/>
<path d="M54.5825 21.1456L54.2419 21.0254L53.9412 20.7761L53.5741 20.7316L53.2115 20.6782L52.9196 20.3977L52.6144 20.1528L52.2606 20.0593L51.8184 20.2597L51.4823 20.1261L51.1904 19.8367L50.8322 19.7699L50.5138 19.5607L50.129 19.5696" stroke="#EDE4CB" stroke-width="2" stroke-miterlimit="10"/>
<path d="M44.3134 22.1608L44.707 22.2454L44.9901 22.4813L45.1935 22.8197L45.5208 22.9933L45.7773 23.2693L46.0736 23.4831L46.3787 23.6878L46.6883 23.8926L47.0952 23.9639L47.3119 24.2933L47.6657 24.4358" stroke="#EDE4CB" stroke-width="2" stroke-miterlimit="10"/>
<path d="M37.6222 23.0422L37.9008 23.3183L37.8698 23.7234L38.1617 23.995L38.1263 24.4001L38.4094 24.6762L38.4182 25.0635L38.6128 25.3752L38.8428 25.6779L39.0064 26.0029" stroke="#EDE4CB" stroke-width="2" stroke-miterlimit="10"/>
</g>
<defs>
<clipPath id="clip0_237_6141">
<rect width="60" height="27.6923" fill="white" transform="translate(0 0.153809)"/>
</clipPath>
</defs>
</svg>
