<svg width="24" height="24" viewBox="0 0 24 24" fill="none" xmlns="http://www.w3.org/2000/svg">
<path stroke="#966A09" d="M6.85423 9.09099C6.85412 8.24726 7.06603 7.41673 7.47089 6.67411C7.87575 5.93149 8.46086 5.30007 9.1736 4.83663C9.88634 4.37319 10.7044 4.09228 11.5541 4.01916C12.4038 3.94603 13.2586 4.08299 14.0415 4.41771C14.8244 4.75243 15.511 5.27442 16.0394 5.93672C16.5678 6.59903 16.9215 7.38088 17.0687 8.21195C17.2159 9.04302 17.1519 9.89726 16.8826 10.6978C16.6132 11.4984 16.147 12.2201 15.5257 12.7982C16.697 13.3608 17.714 14.1943 18.4905 15.2283C19.267 16.2623 19.7802 17.4661 19.9864 18.7379C20.0091 18.8795 20.0034 19.024 19.9696 19.1634C19.9358 19.3027 19.8746 19.4341 19.7895 19.55C19.7043 19.666 19.597 19.7642 19.4735 19.8391C19.35 19.914 19.2128 19.9641 19.0697 19.9865C18.9266 20.009 18.7805 20.0033 18.6396 19.9699C18.4988 19.9365 18.3659 19.8759 18.2487 19.7917C18.1315 19.7075 18.0322 19.6013 17.9565 19.4791C17.8808 19.357 17.8302 19.2213 17.8075 19.0797C17.587 17.713 16.8811 16.4689 15.8167 15.5707C14.7523 14.6725 13.3991 14.1791 12.0001 14.1791C10.601 14.1791 9.24777 14.6725 8.18337 15.5707C7.11897 16.4689 6.41314 17.713 6.19262 19.0797C6.16984 19.2213 6.1191 19.357 6.0433 19.4791C5.9675 19.6012 5.86813 19.7074 5.75085 19.7915C5.63358 19.8756 5.5007 19.9361 5.3598 19.9694C5.21891 20.0028 5.07275 20.0083 4.92968 19.9858C4.78662 19.9633 4.64944 19.9131 4.52598 19.8381C4.40252 19.7631 4.2952 19.6648 4.21014 19.5488C4.12509 19.4328 4.06397 19.3013 4.03027 19.162C3.99656 19.0226 3.99094 18.878 4.01373 18.7365C4.21923 17.4648 4.73208 16.261 5.50869 15.2274C6.2853 14.1938 7.3027 13.361 8.47443 12.7997C7.96279 12.3236 7.55509 11.749 7.27645 11.1111C6.9978 10.4733 6.85411 9.78582 6.85423 9.09099ZM12.0001 6.18221C11.6085 6.17345 11.2191 6.24217 10.8547 6.38433C10.4903 6.52649 10.1584 6.73923 9.87825 7.01005C9.59814 7.28088 9.37555 7.60433 9.22355 7.96143C9.07155 8.31852 8.9932 8.70206 8.9931 9.08952C8.99301 9.47697 9.07116 9.86055 9.22298 10.2177C9.3748 10.5749 9.59723 10.8985 9.8772 11.1694C10.1572 11.4404 10.489 11.6533 10.8533 11.7956C11.2176 11.938 11.607 12.0069 11.9986 11.9983C12.7669 11.9815 13.498 11.6678 14.0354 11.1245C14.5728 10.5811 14.8739 9.85116 14.8741 9.09097C14.8742 8.33078 14.5736 7.60072 14.0364 7.05707C13.4993 6.51342 12.7683 6.1994 12.0001 6.18221Z" fill="black"/>
</svg>
