<svg width="25" height="24" viewBox="0 0 25 24" fill="none" xmlns="http://www.w3.org/2000/svg">
<path d="M20.9307 10.8946L17.3364 13.9961L18.4314 18.6344C18.4919 18.8862 18.4763 19.1502 18.3867 19.3932C18.2972 19.6362 18.1376 19.8471 17.9282 19.9994C17.7188 20.1517 17.4689 20.2386 17.2102 20.2489C16.9515 20.2593 16.6955 20.1928 16.4745 20.0578L12.4409 17.5753L8.40487 20.0578C8.18396 20.192 7.92826 20.2579 7.66998 20.2472C7.4117 20.2364 7.16237 20.1494 6.9534 19.9973C6.74443 19.8451 6.58516 19.6345 6.49565 19.392C6.40613 19.1494 6.39037 18.8859 6.45035 18.6344L7.54942 13.9961L3.95509 10.8946C3.75964 10.7257 3.61828 10.5029 3.54868 10.2542C3.47908 10.0054 3.48431 9.7416 3.56372 9.49577C3.64314 9.24994 3.79321 9.03296 3.99521 8.87192C4.19721 8.71088 4.44218 8.61291 4.69952 8.59027L9.41208 8.21006L11.23 3.81061C11.3284 3.57084 11.4959 3.36575 11.7111 3.22141C11.9264 3.07707 12.1797 3 12.4389 3C12.6981 3 12.9514 3.07707 13.1667 3.22141C13.3819 3.36575 13.5494 3.57084 13.6478 3.81061L15.4649 8.21006L20.1775 8.59027C20.4353 8.61207 20.681 8.70949 20.8838 8.87031C21.0865 9.03113 21.2372 9.2482 21.3172 9.49432C21.3971 9.74045 21.4026 10.0047 21.333 10.2539C21.2634 10.5032 21.1218 10.7263 20.9259 10.8954L20.9307 10.8946Z" fill="#EDE4CB"/>
</svg>
